<svg version="1.1" viewBox="0.0 0.0 500.0 200.0" fill="none" stroke="none" stroke-linecap="square" stroke-miterlimit="10" xmlns:xlink="http://www.w3.org/1999/xlink" xmlns="http://www.w3.org/2000/svg"><clipPath id="g291477575ab_0_6.0"><path d="m0 0l500.0 0l0 200.0l-500.0 0l0 -200.0z" clip-rule="nonzero"/></clipPath><g clip-path="url(#g291477575ab_0_6.0)"><path fill="#000000" fill-opacity="0.0" d="m0 0l500.0 0l0 200.0l-500.0 0z" fill-rule="evenodd"/><path fill="#ffffff" d="m50.367455 74.461945l0 0c0 -20.090992 16.286964 -36.377956 36.377953 -36.377956l0 0c9.648033 0 18.90091 3.8326683 25.723099 10.654858c6.8221893 6.8221893 10.654854 16.075066 10.654854 25.723099l0 0c0 20.090988 -16.286964 36.377953 -36.377953 36.377953l0 0c-20.090988 0 -36.377953 -16.286964 -36.377953 -36.377953z" fill-rule="evenodd"/><path stroke="#ffffff" stroke-width="1.0" stroke-linejoin="round" stroke-linecap="butt" d="m50.367455 74.461945l0 0c0 -20.090992 16.286964 -36.377956 36.377953 -36.377956l0 0c9.648033 0 18.90091 3.8326683 25.723099 10.654858c6.8221893 6.8221893 10.654854 16.075066 10.654854 25.723099l0 0c0 20.090988 -16.286964 36.377953 -36.377953 36.377953l0 0c-20.090988 0 -36.377953 -16.286964 -36.377953 -36.377953z" fill-rule="evenodd"/><path fill="#ffffff" d="m85.49335 91.646095l55.433075 55.433067l-36.115128 -0.8398895l-19.317947 -19.31794l-18.439857 18.439857l-34.473526 -0.80171204z" fill-rule="evenodd"/><path stroke="#ffffff" stroke-width="1.0" stroke-linejoin="round" stroke-linecap="butt" d="m85.49335 91.646095l55.433075 55.433067l-36.115128 -0.8398895l-19.317947 -19.31794l-18.439857 18.439857l-34.473526 -0.80171204z" fill-rule="evenodd"/><path fill="#000000" fill-opacity="0.0" d="m55.669292 -81.70604l522.51965 0l0 355.4961l-522.51965 0z" fill-rule="evenodd"/><path fill="#ffffff" d="m191.02867 141.29396l-25.390625 -50.84375l-1.625 0q-1.953125 0 -2.796875 -0.78125q-0.84375 -0.78125 -0.84375 -1.953125q0 -0.84375 0.421875 -1.53125q0.421875 -0.6875 1.09375 -0.96875q0.6875 -0.296875 2.125 -0.296875l14.96875 0q1.953125 0 2.796875 0.78125q0.859375 0.78125 0.859375 2.015625q0 1.171875 -0.859375 1.953125q-0.84375 0.78125 -2.796875 0.78125l-7.34375 0l22.328125 44.859375l22.0 -44.859375l-7.359375 0q-1.953125 0 -2.796875 -0.78125q-0.84375 -0.78125 -0.84375 -2.015625q0 -1.171875 0.84375 -1.953125q0.84375 -0.78125 2.796875 -0.78125l14.90625 0q2.015625 0 2.859375 0.78125q0.859375 0.78125 0.859375 2.015625q0 0.84375 -0.53125 1.5625q-0.515625 0.71875 -1.171875 0.953125q-0.640625 0.21875 -3.640625 0.21875l-34.625 70.5l8.515625 0q1.953125 0 2.796875 0.75q0.859375 0.75 0.859375 1.984375q0 1.171875 -0.859375 1.953125q-0.84375 0.78125 -2.796875 0.78125l-31.5 0q-1.953125 0 -2.8125 -0.75q-0.84375 -0.75 -0.84375 -1.984375q0 -1.234375 0.84375 -1.984375q0.859375 -0.75 2.8125 -0.75l17.125 0l9.625 -19.65625zm95.3849 0l0 -7.875q-11.921875 10.015625 -25.46875 10.015625q-9.828125 0 -15.359375 -4.96875q-5.53125 -4.984375 -5.53125 -12.203125q0 -7.953125 7.28125 -13.875q7.296875 -5.921875 21.296875 -5.921875q3.78125 0 8.203125 0.484375q4.421875 0.484375 9.578125 1.53125l0 -8.859375q0 -4.484375 -4.171875 -7.796875q-4.171875 -3.328125 -12.5 -3.328125q-6.375 0 -17.90625 3.703125q-2.078125 0.65625 -2.671875 0.65625q-1.03125 0 -1.78125 -0.78125q-0.75 -0.78125 -0.75 -1.953125q0 -1.109375 0.640625 -1.75q0.921875 -0.984375 7.359375 -2.671875q10.15625 -2.734375 15.375 -2.734375q10.34375 0 16.140625 5.109375q5.796875 5.109375 5.796875 11.546875l0 36.203125l7.28125 0q2.015625 0 2.859375 0.75q0.859375 0.75 0.859375 1.984375q0 1.171875 -0.859375 1.953125q-0.84375 0.78125 -2.859375 0.78125l-12.8125 0zm0 -27.21875q-3.84375 -1.09375 -8.140625 -1.609375q-4.296875 -0.53125 -9.046875 -0.53125q-11.921875 0 -18.625 5.140625q-5.078125 3.84375 -5.078125 9.1875q0 4.9375 3.875 8.328125q3.875 3.390625 11.296875 3.390625q7.09375 0 13.171875 -2.828125q6.09375 -2.84375 12.546875 -9.03125l0 -12.046875zm53.181763 2.875l0 24.34375l-12.828125 0q-1.953125 0 -2.796875 -0.78125q-0.84375 -0.78125 -0.84375 -1.953125q0 -1.234375 0.84375 -1.984375q0.84375 -0.75 2.796875 -0.75l7.359375 0l0 -70.703125l-7.359375 0q-1.953125 0 -2.796875 -0.78125q-0.84375 -0.7812462 -0.84375 -2.0156212q0 -1.171875 0.84375 -1.953125q0.84375 -0.78125 2.796875 -0.78125l12.828125 0l0 50.39062l23.234375 -19.53125l-2.796875 0q-1.953125 0 -2.796875 -0.78125q-0.84375 -0.78125 -0.84375 -1.953125q0 -1.234375 0.84375 -2.015625q0.84375 -0.78125 2.796875 -0.78125l17.515625 0q2.015625 0 2.859375 0.78125q0.84375 0.78125 0.84375 2.015625q0 1.171875 -0.84375 1.953125q-0.84375 0.78125 -2.859375 0.78125l-6.3125 0l-21.359375 17.84375l27.015625 27.53125l6.3125 0q2.03125 0 2.875 0.75q0.84375 0.75 0.84375 1.984375q0 1.171875 -0.84375 1.953125q-0.84375 0.78125 -2.875 0.78125l-17.703125 0q-1.953125 0 -2.796875 -0.78125q-0.84375 -0.78125 -0.84375 -1.953125q0 -1.234375 0.84375 -1.984375q0.84375 -0.75 2.796875 -0.75l3.84375 0l-23.5 -24.15625l-6.25 5.28125zm106.83804 24.34375l0 -7.875q-11.921875 10.015625 -25.46875 10.015625q-9.828125 0 -15.359375 -4.96875q-5.53125 -4.984375 -5.53125 -12.203125q0 -7.953125 7.28125 -13.875q7.296875 -5.921875 21.296875 -5.921875q3.78125 0 8.203125 0.484375q4.421875 0.484375 9.578125 1.53125l0 -8.859375q0 -4.484375 -4.171875 -7.796875q-4.171875 -3.328125 -12.5 -3.328125q-6.375 0 -17.90625 3.703125q-2.078125 0.65625 -2.671875 0.65625q-1.03125 0 -1.78125 -0.78125q-0.75 -0.78125 -0.75 -1.953125q0 -1.109375 0.640625 -1.75q0.921875 -0.984375 7.359375 -2.671875q10.15625 -2.734375 15.375 -2.734375q10.34375 0 16.140625 5.109375q5.796875 5.109375 5.796875 11.546875l0 36.203125l7.28125 0q2.015625 0 2.859375 0.75q0.859375 0.75 0.859375 1.984375q0 1.171875 -0.859375 1.953125q-0.84375 0.78125 -2.859375 0.78125l-12.8125 0zm0 -27.21875q-3.84375 -1.09375 -8.140625 -1.609375q-4.296875 -0.53125 -9.046875 -0.53125q-11.921875 0 -18.625 5.140625q-5.078125 3.84375 -5.078125 9.1875q0 4.9375 3.875 8.328125q3.875 3.390625 11.296875 3.390625q7.09375 0 13.171875 -2.828125q6.09375 -2.84375 12.546875 -9.03125l0 -12.046875z" fill-rule="nonzero"/></g></svg>