<svg version="1.1" viewBox="0.0 0.0 50.0 20.0" fill="none" stroke="none" stroke-linecap="square" stroke-miterlimit="10" xmlns:xlink="http://www.w3.org/1999/xlink" xmlns="http://www.w3.org/2000/svg"><clipPath id="p.0"><path d="m0 0l50.0 0l0 20.0l-50.0 0l0 -20.0z" clip-rule="nonzero"/></clipPath><g clip-path="url(#p.0)"><path fill="#000000" fill-opacity="0.0" d="m0 0l50.0 0l0 20.0l-50.0 0z" fill-rule="evenodd"/><path fill="#595959" d="m5.0367455 7.446194l0 0c0 -2.009099 1.6286964 -3.6377952 3.637795 -3.6377952l0 0c0.9648037 0 1.890091 0.3832667 2.5723095 1.0654857c0.6822195 0.682219 1.065486 1.6075063 1.065486 2.5723095l0 0c0 2.0090985 -1.6286964 3.637795 -3.6377954 3.637795l0 0c-2.0090985 0 -3.637795 -1.6286964 -3.637795 -3.637795z" fill-rule="evenodd"/><path stroke="#595959" stroke-width="1.0" stroke-linejoin="round" stroke-linecap="butt" d="m5.0367455 7.446194l0 0c0 -2.009099 1.6286964 -3.6377952 3.637795 -3.6377952l0 0c0.9648037 0 1.890091 0.3832667 2.5723095 1.0654857c0.6822195 0.682219 1.065486 1.6075063 1.065486 2.5723095l0 0c0 2.0090985 -1.6286964 3.637795 -3.6377954 3.637795l0 0c-2.0090985 0 -3.637795 -1.6286964 -3.637795 -3.637795z" fill-rule="evenodd"/><path fill="#595959" d="m8.549335 9.164609l5.5433073 5.5433073l-3.6115122 -0.08398819l-1.9317951 -1.9317951l-1.8439856 1.8439856l-3.4473526 -0.08017063z" fill-rule="evenodd"/><path stroke="#595959" stroke-width="1.0" stroke-linejoin="round" stroke-linecap="butt" d="m8.549335 9.164609l5.5433073 5.5433073l-3.6115122 -0.08398819l-1.9317951 -1.9317951l-1.8439856 1.8439856l-3.4473526 -0.08017063z" fill-rule="evenodd"/><path fill="#000000" fill-opacity="0.0" d="m5.5669293 -8.170604l52.25197 0l0 35.559055l-52.25197 0z" fill-rule="evenodd"/><path fill="#595959" d="m18.504429 13.6293955l-2.484375 -4.953125l-0.15625 0q-0.1875 0 -0.265625 -0.078125q-0.078125 -0.078125 -0.078125 -0.1875q0 -0.09375 0.03125 -0.15625q0.046875 -0.0625 0.109375 -0.09375q0.0625 -0.03125 0.203125 -0.03125l1.46875 0q0.1875 0 0.265625 0.078125q0.078125 0.078125 0.078125 0.203125q0 0.109375 -0.078125 0.1875q-0.078125 0.078125 -0.265625 0.078125l-0.71875 0l2.171875 4.375l2.140625 -4.375l-0.703125 0q-0.203125 0 -0.28125 -0.078125q-0.078125 -0.078125 -0.078125 -0.203125q0 -0.109375 0.078125 -0.1875q0.078125 -0.078125 0.28125 -0.078125l1.453125 0q0.1875 0 0.265625 0.078125q0.09375 0.078125 0.09375 0.203125q0 0.078125 -0.0625 0.15625q-0.046875 0.0625 -0.109375 0.09375q-0.0625 0.015625 -0.359375 0.015625l-3.375 6.875l0.84375 0q0.1875 0 0.265625 0.0625q0.078125 0.078125 0.078125 0.203125q0 0.109375 -0.078125 0.18750095q-0.078125 0.078125 -0.265625 0.078125l-3.078125 0q-0.1875 0 -0.28125 -0.078125q-0.078125 -0.07812595 -0.078125 -0.18750095q0 -0.125 0.078125 -0.203125q0.09375 -0.0625 0.28125 -0.0625l1.671875 0l0.9375 -1.921875zm9.30127 0l0 -0.765625q-1.171875 0.96875 -2.484375 0.96875q-0.953125 0 -1.5 -0.484375q-0.53125 -0.484375 -0.53125 -1.1875q0 -0.765625 0.703125 -1.34375q0.71875 -0.578125 2.078125 -0.578125q0.359375 0 0.796875 0.046875q0.4375 0.046875 0.9375 0.140625l0 -0.859375q0 -0.4375 -0.40625 -0.75q-0.40625 -0.328125 -1.21875 -0.328125q-0.625 0 -1.75 0.359375q-0.203125 0.0625 -0.265625 0.0625q-0.09375 0 -0.171875 -0.078125q-0.0625 -0.078125 -0.0625 -0.1875q0 -0.109375 0.0625 -0.171875q0.078125 -0.09375 0.71875 -0.265625q0.984375 -0.265625 1.484375 -0.265625q1.015625 0 1.578125 0.5q0.5625 0.5 0.5625 1.125l0 3.53125l0.71875 0q0.1875 0 0.265625 0.078125q0.09375 0.0625 0.09375 0.1875q0 0.109375 -0.09375 0.1875q-0.078125 0.078125 -0.265625 0.078125l-1.25 0zm0 -2.65625q-0.375 -0.109375 -0.796875 -0.15625q-0.421875 -0.046875 -0.875 -0.046875q-1.171875 0 -1.828125 0.5q-0.484375 0.375 -0.484375 0.890625q0 0.484375 0.375 0.8125q0.375 0.328125 1.09375 0.328125q0.703125 0 1.296875 -0.265625q0.59375 -0.28125 1.21875 -0.890625l0 -1.171875zm5.1762695 0.28125l0 2.375l-1.25 0q-0.1875 0 -0.265625 -0.078125q-0.078125 -0.078125 -0.078125 -0.1875q0 -0.125 0.078125 -0.1875q0.078125 -0.078125 0.265625 -0.078125l0.71875 0l0 -6.890625l-0.71875 0q-0.1875 0 -0.265625 -0.078125q-0.078125 -0.078125 -0.078125 -0.203125q0 -0.109375 0.078125 -0.1875q0.078125 -0.078125 0.265625 -0.078125l1.25 0l0 4.921875l2.265625 -1.90625l-0.265625 0q-0.1875 0 -0.28125 -0.078125q-0.078125 -0.078125 -0.078125 -0.1875q0 -0.125 0.078125 -0.203125q0.09375 -0.078125 0.28125 -0.078125l1.703125 0q0.203125 0 0.28125 0.078125q0.078125 0.078125 0.078125 0.203125q0 0.109375 -0.078125 0.1875q-0.078125 0.078125 -0.28125 0.078125l-0.609375 0l-2.078125 1.734375l2.625 2.6875l0.625 0q0.1875 0 0.265625 0.078125q0.09375 0.0625 0.09375 0.1875q0 0.109375 -0.09375 0.1875q-0.078125 0.078125 -0.265625 0.078125l-1.734375 0q-0.1875 0 -0.28125 -0.078125q-0.078125 -0.078125 -0.078125 -0.1875q0 -0.125 0.078125 -0.1875q0.09375 -0.078125 0.28125 -0.078125l0.375 0l-2.296875 -2.359375l-0.609375 0.515625zm10.42627 2.375l0 -0.765625q-1.171875 0.96875 -2.484375 0.96875q-0.953125 0 -1.5 -0.484375q-0.53125 -0.484375 -0.53125 -1.1875q0 -0.765625 0.703125 -1.34375q0.71875 -0.578125 2.078125 -0.578125q0.359375 0 0.796875 0.046875q0.4375 0.046875 0.9375 0.140625l0 -0.859375q0 -0.4375 -0.40625 -0.75q-0.40625 -0.328125 -1.21875 -0.328125q-0.625 0 -1.75 0.359375q-0.203125 0.0625 -0.265625 0.0625q-0.09375 0 -0.171875 -0.078125q-0.0625 -0.078125 -0.0625 -0.1875q0 -0.109375 0.0625 -0.171875q0.078125 -0.09375 0.71875 -0.265625q0.984375 -0.265625 1.484375 -0.265625q1.015625 0 1.578125 0.5q0.5625 0.5 0.5625 1.125l0 3.53125l0.71875 0q0.1875 0 0.265625 0.078125q0.09375 0.0625 0.09375 0.1875q0 0.109375 -0.09375 0.1875q-0.078125 0.078125 -0.265625 0.078125l-1.25 0zm0 -2.65625q-0.375 -0.109375 -0.796875 -0.15625q-0.421875 -0.046875 -0.875 -0.046875q-1.171875 0 -1.828125 0.5q-0.484375 0.375 -0.484375 0.890625q0 0.484375 0.375 0.8125q0.375 0.328125 1.09375 0.328125q0.703125 0 1.296875 -0.265625q0.59375 -0.28125 1.21875 -0.890625l0 -1.171875z" fill-rule="nonzero"/></g></svg>