<svg version="1.1" viewBox="0.0 0.0 500.0 200.0" fill="none" stroke="none" stroke-linecap="square" stroke-miterlimit="10" xmlns:xlink="http://www.w3.org/1999/xlink" xmlns="http://www.w3.org/2000/svg"><clipPath id="g291477575ab_0_0.0"><path d="m0 0l500.0 0l0 200.0l-500.0 0l0 -200.0z" clip-rule="nonzero"/></clipPath><g clip-path="url(#g291477575ab_0_0.0)"><path fill="#000000" fill-opacity="0.0" d="m0 0l500.0 0l0 200.0l-500.0 0z" fill-rule="evenodd"/><path fill="#000000" fill-opacity="0.0" d="m0 44.25197l500.0 0l0 111.49606l-500.0 0z" fill-rule="evenodd"/><path fill="#5b0f00" d="m42.140625 127.50884q-5.9375 0 -5.9375 -5.09375q0 -1.671875 0.5 -3.828125q0.5 -2.171875 1.40625 -5.59375q1.0625 -3.578125 1.59375 -6.078125q0.53125 -2.515625 0.53125 -4.484375q0 -5.171875 -4.5625 -5.171875q-1.21875 0 -2.5 0.296875l-6.078125 28.65625l-10.953125 0l10.34375 -48.34375l11.25 -1.515625l-3.734375 17.5625l0.609375 0q2.96875 0 5.46875 -2.046875q2.515625 -2.0625 3.921875 -5.140625q1.40625 -3.078125 1.40625 -6.046875q0 -3.484375 -2.09375 -5.71875q-2.09375 -2.25 -6.265625 -2.25q-6.15625 0 -10.796875 2.203125q-4.640625 2.203125 -7.1875 6.390625q-2.53125 4.171875 -2.53125 9.875q0 2.8125 0.53125 3.921875q0.53125 1.09375 0.53125 1.234375q-4.109375 0 -6.125 -1.703125q-2.015625 -1.703125 -2.015625 -5.65625q0 -4.875 3.984375 -9.46875q4.0 -4.59375 10.234375 -7.4375q6.234375 -2.859375 12.453125 -2.859375q5.703125 0 9.578125 1.671875q3.875 1.671875 5.78125 4.453125q1.90625 2.765625 1.90625 6.03125q0 3.578125 -2.21875 7.15625q-2.203125 3.5625 -6.0 5.84375q2.890625 0.828125 4.0625 2.78125q1.1875 1.9375 1.1875 4.8125q0 2.203125 -0.53125 4.6875q-0.53125 2.46875 -1.515625 6.109375q-0.609375 2.359375 -1.140625 4.640625q-0.53125 2.28125 -0.53125 3.796875q0 1.75 0.796875 3.125q0.796875 1.359375 2.15625 1.890625q-4.625 1.296875 -7.515625 1.296875zm23.410355 -0.84375q-5.625 0 -8.75 -2.921875q-3.109375 -2.921875 -3.109375 -9.15625q0 -5.25 2.046875 -11.546875q2.046875 -6.3125 6.6875 -10.90625q4.640625 -4.609375 11.78125 -4.609375q8.359375 0 8.359375 7.296875q0 4.265625 -2.4375 7.84375q-2.421875 3.5625 -6.453125 5.734375q-4.03125 2.15625 -8.59375 2.453125q-0.140625 2.28125 -0.140625 3.046875q0 3.71875 1.28125 5.0625q1.296875 1.328125 4.1875 1.328125q4.109375 0 7.03125 -1.90625q2.921875 -1.90625 6.421875 -5.78125l2.578125 0q-8.4375 14.0625 -20.890625 14.0625zm0.140625 -19.453125q2.8125 -0.15625 5.359375 -1.96875q2.546875 -1.828125 4.109375 -4.640625q1.5625 -2.8125 1.5625 -5.9375q0 -3.109375 -1.90625 -3.109375q-2.734375 0 -5.359375 4.796875q-2.625 4.78125 -3.765625 10.859375zm26.824615 19.453125q-3.640625 0 -6.15625 -1.40625q-2.5 -1.40625 -3.71875 -3.640625q-1.21875 -2.25 -1.21875 -4.671875q0 -2.515625 1.1875 -4.375q1.171875 -1.859375 2.84375 -2.703125q2.96875 -5.3125 5.171875 -10.75q2.203125 -5.4375 4.171875 -11.75l11.25 -1.515625q0.390625 9.734375 1.296875 21.0625q0.375 4.546875 0.375 6.609375q0 1.75 -0.296875 2.890625q3.5625 -2.0625 5.46875 -3.8125l3.1875 0q-4.859375 5.625 -11.625 9.5q-2.203125 2.359375 -5.4375 3.46875q-3.21875 1.09375 -6.5 1.09375zm-2.421875 -6.0q2.8125 0 4.703125 -1.671875q1.90625 -1.671875 1.90625 -5.390625q0 -2.28125 -0.453125 -6.390625q-0.765625 -8.65625 -0.984375 -11.625q-1.828125 6.0 -6.15625 14.359375q1.734375 0.90625 1.734375 2.65625q0 1.453125 -0.953125 2.59375q-0.9375 1.140625 -2.390625 1.140625q-1.59375 0 -2.046875 -1.0q0 2.75 1.09375 4.046875q1.109375 1.28125 3.546875 1.28125zm30.328873 6.0q-3.65625 0 -5.90625 -2.28125q-2.234375 -2.28125 -2.234375 -6.828125q0 -1.90625 0.609375 -4.953125l4.5625 -21.34375l-2.515625 0l0.609375 -3.046875l2.515625 0l2.28125 -10.484375l11.25 -1.53125l-2.59375 12.015625l4.5625 0l-0.609375 3.046875l-4.5625 0l-4.859375 22.796875q-0.296875 1.140625 -0.296875 2.421875q0 1.53125 0.71875 2.171875q0.71875 0.640625 2.390625 0.640625q2.203125 0 4.09375 -1.859375q1.90625 -1.859375 2.75 -4.828125l3.1875 0q-2.8125 8.21875 -7.21875 11.140625q-4.40625 2.921875 -8.734375 2.921875zm21.885742 0q-4.34375 0 -7.234375 -2.953125q-2.875 -2.96875 -2.875 -9.28125q0 -5.625 2.234375 -11.8125q2.25 -6.203125 6.6875 -10.484375q4.453125 -4.296875 10.609375 -4.296875q3.109375 0 4.625 1.0625q1.53125 1.0625 1.53125 2.8125l0 0.53125l0.828125 -4.03125l10.953125 0l-5.46875 25.84375q-0.3125 1.140625 -0.3125 2.421875q0 3.28125 3.109375 3.28125q2.140625 0 3.6875 -1.96875q1.5625 -1.984375 2.46875 -5.1875l3.203125 0q-2.8125 8.21875 -6.953125 11.140625q-4.140625 2.921875 -8.328125 2.921875q-3.1875 0 -5.125 -1.78125q-1.9375 -1.78125 -2.328125 -5.203125q-2.203125 3.109375 -4.90625 5.046875q-2.6875 1.9375 -6.40625 1.9375zm4.9375 -7.375q1.890625 0 3.75 -1.78125q1.875 -1.78125 2.5625 -4.90625l3.640625 -17.171875q0 -0.984375 -0.765625 -1.9375q-0.75 -0.953125 -2.34375 -0.953125q-3.046875 0 -5.484375 3.546875q-2.421875 3.53125 -3.796875 8.515625q-1.359375 4.96875 -1.359375 8.765625q0 3.796875 1.09375 4.859375q1.109375 1.0625 2.703125 1.0625zm33.444733 7.375q-3.65625 0 -5.90625 -2.28125q-2.234375 -2.28125 -2.234375 -6.828125q0 -1.90625 0.609375 -4.953125l5.171875 -24.390625l10.9375 0l-5.46875 25.84375q-0.234375 1.140625 -0.234375 2.125q0 3.109375 2.28125 3.109375q2.125 0 3.640625 -1.78125q1.53125 -1.78125 2.4375 -4.90625l5.171875 -24.390625l10.953125 0l-5.484375 25.84375q-0.296875 1.140625 -0.296875 2.421875q0 1.53125 0.71875 2.171875q0.71875 0.640625 2.390625 0.640625q2.140625 0 3.6875 -1.8125q1.5625 -1.828125 2.46875 -4.875l3.203125 0q-2.8125 8.21875 -6.96875 11.140625q-4.140625 2.921875 -8.3125 2.921875q-3.265625 0 -5.203125 -1.8125q-1.9375 -1.828125 -2.328125 -5.40625q-2.578125 4.1875 -5.4375 5.703125q-2.84375 1.515625 -5.796875 1.515625zm36.020615 -38.453125l10.9375 0l-0.984375 4.71875q2.578125 -2.28125 4.671875 -3.5q2.09375 -1.21875 4.515625 -1.21875q2.4375 0 3.84375 1.671875q1.40625 1.671875 1.40625 4.03125q0 2.203125 -1.453125 3.875q-1.4375 1.671875 -4.015625 1.671875q-1.671875 0 -2.25 -0.796875q-0.5625 -0.796875 -0.875 -2.328125q-0.21875 -0.984375 -0.453125 -1.4375q-0.21875 -0.453125 -0.828125 -0.453125q-1.59375 0 -2.703125 0.65625q-1.09375 0.640625 -2.84375 2.234375l-6.078125 28.875l-10.953125 0l8.0625 -38.0zm32.529114 38.453125q-4.34375 0 -7.234375 -2.953125q-2.875 -2.96875 -2.875 -9.28125q0 -5.625 2.234375 -11.8125q2.25 -6.203125 6.6875 -10.484375q4.453125 -4.296875 10.60936 -4.296875q3.109375 0 4.625 1.0625q1.53125 1.0625 1.53125 2.8125l0 0.53125l0.828125 -4.03125l10.953125 0l-5.46875 25.84375q-0.3125 1.140625 -0.3125 2.421875q0 3.28125 3.109375 3.28125q2.140625 0 3.6875 -1.96875q1.5625 -1.984375 2.46875 -5.1875l3.203125 0q-2.8125 8.21875 -6.953125 11.140625q-4.140625 2.921875 -8.328125 2.921875q-3.1875 0 -5.125 -1.78125q-1.9375 -1.78125 -2.328125 -5.203125q-2.203125 3.109375 -4.9062347 5.046875q-2.6875 1.9375 -6.40625 1.9375zm4.9375 -7.375q1.8906097 0 3.7499847 -1.78125q1.875 -1.78125 2.5625 -4.90625l3.640625 -17.171875q0 -0.984375 -0.765625 -1.9375q-0.75 -0.953125 -2.34375 -0.953125q-3.046875 0 -5.4843597 3.546875q-2.421875 3.53125 -3.796875 8.515625q-1.359375 4.96875 -1.359375 8.765625q0 3.796875 1.09375 4.859375q1.109375 1.0625 2.703125 1.0625zm53.350998 7.375q-4.640625 0 -6.8125 -2.46875q-2.15625 -2.46875 -2.15625 -6.109375q0 -1.609375 0.375 -3.609375q0.390625 -2.015625 0.796875 -3.921875q0.421875 -1.90625 0.578125 -2.4375q0.609375 -2.65625 1.140625 -5.234375q0.53125 -2.59375 0.53125 -4.1875q0 -3.875 -2.734375 -3.875q-1.984375 0 -3.5 1.9375q-1.515625 1.9375 -2.4375 5.0625l-5.15625 24.390625l-10.953125 0l8.0625 -38.0l10.9375 0l-0.828125 3.953125q3.796875 -4.25 8.890625 -4.25q3.875 0 6.15625 2.125q2.28125 2.125 2.28125 6.453125q0 2.203125 -0.53125 4.90625q-0.53125 2.703125 -1.53125 6.578125q-0.609375 2.34375 -1.109375 4.59375q-0.484375 2.234375 -0.484375 3.53125q0 1.515625 0.6875 2.359375q0.6875 0.828125 2.359375 0.828125q2.28125 0 3.640625 -1.625q1.375 -1.640625 2.734375 -5.0625l3.203125 0q-2.8125 8.359375 -6.5 11.21875q-3.6875 2.84375 -7.640625 2.84375zm18.08313 0q-3.875 0 -5.734375 -2.34375q-1.859375 -2.359375 -1.859375 -6.234375q0 -1.984375 0.453125 -4.03125l4.859375 -22.796875l-2.5 0l0.609375 -3.046875l2.5 0l2.28125 -10.484375l11.25 -1.53125q-0.6875 2.890625 -0.765625 3.421875q-0.53125 2.140625 -1.8125 8.59375l4.546875 0l-0.59375 3.046875l-4.5625 0l-4.875 22.796875q-0.375 1.671875 -0.375 2.65625q0 2.734375 2.65625 2.734375q1.375 0 1.984375 -0.21875q-1.515625 4.40625 -3.578125 5.921875q-2.046875 1.515625 -4.484375 1.515625zm37.858643 0q-3.65625 0 -5.90625 -2.28125q-2.234375 -2.28125 -2.234375 -6.828125q0 -1.90625 0.609375 -4.953125l8.125 -38.078125l11.25 -1.515625l-8.734375 41.046875q-0.296875 1.140625 -0.296875 2.421875q0 1.53125 0.71875 2.171875q0.71875 0.640625 2.390625 0.640625q2.203125 0 4.09375 -1.859375q1.90625 -1.859375 2.75 -4.828125l3.1875 0q-2.8125 8.21875 -7.21875 11.140625q-4.40625 2.921875 -8.734375 2.921875zm23.854492 -0.15625q-5.625 0 -8.890625 -2.875q-3.265625 -2.890625 -3.265625 -9.125q0 -5.171875 2.125 -11.46875q2.125 -6.3125 6.828125 -10.90625q4.71875 -4.609375 11.875 -4.609375q9.71875 0 9.71875 12.15625l0 0.078125q0.234375 0.078125 0.84375 0.078125q2.5 0 5.765625 -1.328125q3.28125 -1.328125 5.9375 -3.234375l0.6875 2.0625q-2.203125 2.34375 -5.75 3.984375q-3.53125 1.640625 -7.703125 2.3125q-0.609375 6.921875 -3.125 12.09375q-2.5 5.171875 -6.453125 7.984375q-3.953125 2.796875 -8.59375 2.796875zm3.046875 -6.828125q1.8125 0 3.640625 -2.09375q1.828125 -2.09375 3.1875 -5.703125q1.375 -3.609375 1.984375 -8.015625q-2.046875 -0.453125 -2.046875 -3.1875q0 -3.125 2.34375 -4.109375q-0.140625 -2.5 -0.75 -3.453125q-0.609375 -0.953125 -2.125 -0.953125q-2.515625 0 -4.875 3.65625q-2.359375 3.640625 -3.796875 8.734375q-1.4375 5.09375 -1.4375 8.96875q0 3.640625 0.828125 4.90625q0.84375 1.25 3.046875 1.25zm32.676483 25.531258q-3.65625 0 -6.09375 -1.90625q-2.421875 -1.890625 -2.421875 -5.46875q0 -4.328125 3.5 -6.953125q3.5 -2.625 8.890625 -4.3750076l0.90625 -4.015625q-3.875 4.171875 -9.109375 4.171875q-4.34375 0 -7.234375 -2.953125q-2.875 -2.96875 -2.875 -9.28125q0 -5.625 2.234375 -11.8125q2.25 -6.203125 6.6875 -10.484375q4.453125 -4.296875 10.609375 -4.296875q3.109375 0 4.625 1.0625q1.53125 1.0625 1.53125 2.8125l0 0.453125l0.828125 -3.953125l10.953125 0l-7.53125 35.265625q3.65625 -1.21875 5.859375 -3.640625q2.203125 -2.4375 3.71875 -7.234375l3.1875 0q-2.046875 6.765625 -5.546875 9.921875q-3.484375 3.15625 -7.90625 4.296875l-1.140625 5.4687576q-1.515625 7.375 -5.25 10.140625q-3.71875 2.78125 -8.421875 2.78125zm0.609375 -25.921883q1.75 0 3.5625 -1.59375q1.828125 -1.59375 2.515625 -4.328125l3.875 -18.015625q0 -0.90625 -0.765625 -1.859375q-0.75 -0.953125 -2.34375 -0.953125q-3.046875 0 -5.484375 3.546875q-2.421875 3.53125 -3.796875 8.515625q-1.359375 4.96875 -1.359375 8.765625q0 3.796875 1.09375 4.859375q1.109375 1.0625 2.703125 1.0625zm-2.359375 20.000008q1.296875 0 2.5 -1.75q1.21875 -1.75 1.90625 -5.015625l0.453125 -2.203125q-7.4375 2.734375 -7.4375 6.453125q0 0.984375 0.671875 1.75q0.6875 0.765625 1.90625 0.765625zm37.922607 -12.781258q-5.625 0 -8.890625 -2.875q-3.265625 -2.890625 -3.265625 -9.125q0 -5.25 2.046875 -11.515625q2.0625 -6.265625 6.6875 -10.859375q4.640625 -4.609375 11.859375 -4.609375q8.96875 0 9.65625 10.265625q1.671875 -0.375 2.953125 -1.859375q1.296875 -1.484375 2.4375 -3.390625l2.4375 0q-2.0625 4.109375 -3.65625 6.4375q-1.59375 2.3125 -4.171875 3.75q-0.453125 7.140625 -2.9375 12.546875q-2.46875 5.390625 -6.421875 8.3125q-3.9375 2.921875 -8.734375 2.921875zm3.046875 -6.828125q2.8125 0 5.234375 -4.5625q2.4375 -4.5625 3.34375 -11.25q-1.8125 -0.6875 -1.8125 -3.421875q0 -2.96875 2.125 -3.953125q-0.15625 -2.421875 -0.8125 -3.375q-0.640625 -0.953125 -2.078125 -0.953125q-2.515625 0 -4.796875 3.609375q-2.265625 3.609375 -3.671875 8.75q-1.40625 5.125 -1.40625 9.0q0 3.640625 0.828125 4.90625q0.84375 1.25 3.046875 1.25z" fill-rule="nonzero"/></g></svg>